<?xml version="1.0" standalone="no"?>
<!DOCTYPE svg PUBLIC "-//W3C//DTD SVG 20010904//EN"
 "http://www.w3.org/TR/2001/REC-SVG-20010904/DTD/svg10.dtd">
<svg version="1.0" xmlns="http://www.w3.org/2000/svg"
 width="400.000000pt" height="400.000000pt" viewBox="0 0 400.000000 400.000000"
 preserveAspectRatio="xMidYMid meet">
<metadata>
Created by potrace 1.15, written by Peter Selinger 2001-2017
</metadata>
<g transform="translate(0.000000,400.000000) scale(0.100000,-0.100000)"
fill="#000000" stroke="none">
<path d="M1673 3579 c6 -22 3 -25 -23 -27 -20 -2 -30 3 -34 15 -2 10 -2 0 1
-21 4 -28 2 -37 -6 -32 -6 4 -11 2 -11 -3 0 -6 -8 -11 -17 -12 -10 0 -3 -5 16
-11 26 -7 31 -12 20 -18 -8 -5 -18 -5 -23 0 -5 5 -21 7 -35 4 -20 -4 -33 1
-53 21 -16 16 -32 24 -39 19 -7 -4 -9 -3 -5 4 3 6 1 14 -5 18 -9 5 -10 -1 -5
-19 l6 -26 -41 14 c-47 17 -71 19 -49 5 12 -8 10 -10 -10 -10 -19 0 -21 -3
-11 -9 8 -5 19 -7 26 -5 6 3 22 0 36 -6 22 -9 22 -10 -7 -5 -23 5 -33 2 -37
-9 -4 -11 0 -16 12 -16 14 0 18 -5 14 -19 -5 -20 -18 -24 -105 -36 -30 -4 -51
-13 -57 -23 -8 -15 -5 -17 28 -14 25 3 41 -1 50 -12 11 -14 11 -16 -3 -16 -10
0 -14 -4 -11 -10 3 -5 15 -10 26 -10 23 0 25 -18 2 -27 -10 -4 -23 2 -34 15
-9 12 -23 22 -30 22 -8 0 -7 -6 4 -18 21 -23 21 -29 0 -36 -15 -4 -15 -5 2 -4
36 1 41 -2 42 -24 1 -13 -1 -18 -5 -13 -6 10 -14 11 -39 6 -4 0 -2 -6 5 -13
16 -16 15 -28 -2 -28 -8 0 -17 -3 -20 -8 -2 -4 14 -6 37 -4 l42 3 -35 -23
c-19 -12 -37 -27 -39 -31 -2 -5 -11 -17 -20 -27 -9 -9 -27 -28 -40 -43 l-23
-26 23 6 c23 6 22 5 -6 -21 -16 -16 -21 -22 -10 -15 11 7 -1 -9 -27 -36 -37
-38 -45 -52 -36 -62 8 -11 6 -18 -10 -34 -27 -25 -27 -29 0 -21 13 3 19 1 15
-5 -4 -6 4 -8 21 -6 19 3 23 2 13 -5 -11 -8 -11 -10 0 -14 9 -3 15 -23 17 -54
3 -60 5 -485 2 -499 -1 -5 -2 -64 -1 -130 3 -147 18 -127 26 33 11 229 17 257
61 317 13 17 23 33 23 38 0 12 39 116 63 167 21 45 84 120 101 120 5 0 54 23
110 50 55 28 120 54 144 57 27 4 43 11 43 20 0 8 11 14 28 14 106 2 219 12
229 21 7 5 22 6 35 2 13 -4 38 -6 56 -5 18 1 32 -2 32 -8 0 -6 5 -11 11 -11 6
0 25 -6 42 -14 43 -18 107 -37 135 -39 12 -1 22 -5 22 -9 0 -4 11 -8 24 -8 58
0 85 -13 110 -51 14 -21 26 -45 26 -52 0 -8 9 -26 21 -41 11 -14 17 -26 13
-26 -4 0 -1 -8 8 -17 26 -32 68 -125 61 -135 -3 -7 -1 -8 5 -4 8 4 16 -3 22
-19 5 -14 14 -23 20 -20 5 3 10 1 10 -4 0 -6 -6 -11 -12 -11 -7 0 6 -9 30 -21
41 -21 54 -43 30 -52 -9 -4 -7 -6 3 -6 17 -1 22 -31 5 -31 -7 0 -7 -3 0 -8 18
-11 44 -80 33 -86 -5 -2 -4 -3 3 -2 7 1 13 9 14 17 0 8 2 16 4 19 5 11 5 65
-1 70 -3 3 -4 22 -1 43 3 25 9 37 21 38 13 0 13 2 -2 8 -20 7 -24 20 -9 30 13
8 22 101 10 101 -5 0 -6 5 -3 10 3 6 0 10 -7 10 -10 0 -10 2 1 9 18 12 20 92
3 110 -11 12 -11 15 0 22 9 6 8 9 -7 9 -15 0 -17 2 -6 9 17 11 4 34 -15 27 -8
-3 -14 -1 -14 4 0 6 -8 10 -17 10 -12 1 -8 6 12 16 17 8 22 12 13 9 -24 -6
-23 14 2 40 19 21 19 21 0 21 -11 0 -20 -4 -20 -8 0 -4 -7 -5 -15 -2 -13 5
-13 9 -3 22 10 12 10 14 1 8 -7 -4 -13 -2 -13 3 0 6 5 11 12 11 6 0 4 7 -5 18
-10 10 -17 24 -17 30 0 7 -4 12 -10 12 -5 0 -17 12 -25 28 -9 15 -14 19 -11
10 3 -10 1 -20 -3 -23 -5 -2 -12 11 -15 30 -4 20 -11 33 -17 30 -5 -4 -9 1 -9
9 0 9 -4 16 -9 16 -5 0 -12 9 -16 19 -8 27 -92 117 -101 108 -4 -3 1 -9 10
-13 9 -3 16 -11 16 -17 0 -6 8 -20 17 -31 10 -12 -5 0 -33 27 -27 26 -53 47
-56 47 -17 0 -88 81 -82 93 4 6 4 9 0 5 -4 -3 -24 5 -43 18 -39 26 -53 30 -53
13 0 -5 4 -8 9 -4 5 3 12 1 16 -5 3 -5 1 -10 -6 -10 -7 0 -5 -8 7 -21 19 -22
19 -22 -3 -8 -13 8 -23 20 -23 27 0 7 -4 11 -9 7 -6 -3 -8 3 -6 14 3 15 0 18
-12 14 -12 -5 -14 -3 -8 8 7 12 6 12 -7 1 -13 -10 -18 -10 -24 -1 -4 8 -3 9 4
5 7 -4 12 -2 12 4 0 6 -8 10 -17 8 -10 -2 -38 16 -67 44 -37 35 -55 46 -75 43
-14 -1 -33 2 -41 9 -13 10 -13 9 -1 -6 7 -10 16 -16 20 -14 4 3 12 -3 18 -13
8 -13 7 -17 -8 -17 -9 0 -15 5 -12 10 4 5 -1 7 -11 3 -9 -4 -15 -3 -12 2 3 5
-5 8 -18 7 -13 0 -24 -5 -23 -10 1 -5 -4 -11 -12 -14 -8 -3 -11 0 -7 7 5 7 1
9 -10 4 -14 -5 -16 -3 -11 10 6 15 4 16 -14 6 -15 -8 -19 -8 -15 0 5 7 -2 11
-17 11 -13 0 -50 9 -83 21 -32 12 -65 21 -71 22 -7 0 -13 8 -13 18 0 10 -5 21
-11 25 -8 5 -10 0 -6 -17z"/>
<path d="M1490 2333 c-45 -6 -105 -27 -118 -43 -12 -13 -12 -13 -6 0 4 9 3 12
-2 7 -5 -5 -9 -14 -9 -20 0 -7 -6 -12 -14 -12 -21 0 -25 -24 -4 -25 21 0 103
0 136 1 58 2 138 -8 149 -19 17 -17 65 -15 72 3 3 8 0 15 -6 15 -6 0 -9 3 -5
6 8 8 -18 34 -35 34 -11 0 -11 2 0 9 10 6 6 11 -15 20 -37 15 -112 27 -143 24z"/>
<path d="M1515 2100 c-44 -3 -90 -11 -102 -18 -12 -7 -35 -12 -52 -12 -34 0
-68 -27 -52 -43 5 -5 70 -9 153 -9 136 1 144 2 162 24 l18 23 -3 -24 c-3 -20
2 -26 25 -32 16 -5 33 -6 38 -3 21 13 -44 83 -86 94 -12 3 -57 3 -101 0z"/>
<path d="M2200 2090 c-43 -8 -79 -26 -102 -54 -26 -32 -22 -36 32 -36 28 0 50
5 50 10 0 6 -4 10 -10 10 -5 0 -7 7 -4 15 9 21 24 19 24 -4 0 -30 55 -39 124
-20 29 8 36 13 25 20 -21 13 -6 11 27 -5 34 -16 107 -28 99 -17 -19 32 -211
90 -265 81z"/>
<path d="M1638 1704 c-11 -11 -10 -51 4 -95 8 -28 17 -39 30 -39 14 0 18 -5
14 -17 -7 -23 7 -46 31 -50 10 -2 49 -5 87 -8 56 -4 73 -2 88 11 14 13 15 20
7 31 -6 7 -17 13 -25 13 -7 0 -34 18 -59 40 -49 42 -86 51 -111 25 -25 -25
-53 1 -56 53 -2 24 -6 40 -10 36z"/>
<path d="M1530 1381 c0 -6 5 -13 11 -16 5 -4 7 -19 4 -34 -5 -22 1 -34 29 -61
19 -19 32 -38 29 -44 -3 -5 -1 -6 5 -2 6 3 15 -1 19 -9 5 -9 25 -18 44 -21 18
-3 44 -7 56 -9 12 -2 27 -6 32 -10 6 -3 11 1 11 9 0 9 5 16 10 16 6 0 10 4 10
9 0 4 -11 6 -25 4 -19 -4 -27 0 -36 21 -11 23 -14 25 -29 11 -11 -10 -24 -12
-45 -7 -26 7 -30 14 -33 45 -3 31 0 37 16 37 11 0 22 6 25 14 4 10 17 11 49 7
23 -4 113 -5 199 -4 146 4 159 2 199 -18 40 -21 42 -24 37 -56 -5 -30 -4 -34
11 -27 9 4 29 9 45 12 15 2 27 7 27 11 0 20 -99 101 -135 110 -23 6 -129 13
-237 17 -183 6 -198 5 -242 -14 -45 -21 -46 -21 -56 -1 -11 20 -30 26 -30 10z"/>
<path d="M2496 1045 c-3 -9 -6 -54 -6 -99 l0 -83 80 -66 c101 -85 110 -111 80
-212 -12 -38 -30 -99 -40 -135 -10 -36 -28 -92 -40 -125 -12 -33 -22 -68 -23
-77 -1 -9 -4 -15 -7 -13 -4 2 -13 -11 -20 -30 -8 -19 -17 -35 -22 -35 -4 0 -8
-9 -8 -21 0 -11 -4 -18 -10 -14 -5 3 -14 -12 -21 -34 -7 -22 -16 -38 -20 -35
-5 3 -6 -2 -3 -10 3 -8 1 -23 -5 -34 -9 -17 -6 -19 24 -19 l34 0 -22 20 c-15
14 -17 18 -5 14 22 -8 30 3 15 22 -10 14 -10 14 3 5 8 -6 23 -10 33 -8 11 1
16 -1 12 -4 -4 -4 -11 -7 -16 -7 -5 0 -8 -4 -6 -10 1 -5 5 -9 9 -8 5 2 7 -3 5
-10 -1 -9 100 -13 477 -15 474 -2 478 -2 473 18 -6 25 -2 25 24 1 21 -19 74
-26 62 -8 -4 7 0 8 13 3 38 -16 54 -18 54 -8 0 7 11 8 32 1 18 -5 34 -9 34 -9
1 0 5 7 8 16 6 14 4 15 -9 4 -14 -11 -17 -10 -21 7 -6 22 -41 38 -46 21 -2 -5
-16 -6 -31 -3 -32 8 -27 25 6 18 l22 -5 -23 17 c-22 16 -24 16 -37 -1 -8 -11
-15 -14 -15 -8 0 6 -7 11 -15 11 -8 0 -11 -5 -8 -10 4 -6 0 -8 -10 -4 -12 4
-14 2 -10 -10 5 -13 2 -15 -11 -10 -10 4 -25 7 -34 7 -13 0 -13 3 4 16 10 8
13 13 7 9 -7 -3 -13 -1 -13 4 0 6 6 11 14 11 8 0 18 4 21 10 4 6 -1 7 -11 3
-14 -5 -16 -2 -12 15 3 11 1 23 -6 26 -8 3 -8 5 1 5 6 1 9 10 6 21 -3 11 0 20
6 20 6 0 2 9 -9 20 -11 11 -24 20 -30 20 -5 0 -10 8 -11 18 0 15 -1 15 -8 -2
-5 -14 -10 -16 -15 -8 -4 7 -12 10 -17 7 -5 -4 -9 -2 -9 2 0 5 9 14 20 21 33
20 23 30 -22 22 -23 -5 -48 -6 -55 -3 -7 3 -13 0 -13 -6 0 -6 5 -11 12 -11 6
0 8 -3 5 -6 -4 -4 -13 -1 -21 5 -13 11 -15 9 -13 -16 1 -15 6 -31 10 -34 5 -4
-3 -9 -17 -11 -26 -5 -26 -5 -10 13 16 18 16 19 1 19 -10 0 -17 4 -17 10 0 5
7 7 16 3 14 -5 15 -3 5 15 -15 29 -14 34 8 27 11 -3 22 -1 26 5 4 6 1 11 -6 9
-8 -1 -23 -1 -34 0 -17 1 -18 3 -5 11 13 8 12 10 -2 10 -10 0 -18 -8 -18 -17
-1 -17 -2 -17 -14 0 -11 15 -22 17 -51 11 -20 -3 -33 -9 -28 -13 4 -3 9 -12
10 -18 4 -19 -32 -16 -48 4 -10 11 -10 14 -1 9 17 -10 15 5 -3 18 -9 6 -17 21
-18 33 0 13 -7 25 -14 27 -7 3 -13 13 -13 21 0 9 -7 24 -16 32 -9 9 -14 26
-11 39 2 13 0 21 -4 18 -5 -3 -9 2 -9 10 0 9 -4 16 -10 16 -5 0 -10 7 -10 16
0 11 -6 15 -18 12 -12 -4 -18 1 -19 13 -1 12 3 16 15 12 14 -4 15 -3 2 6 -11
7 -19 6 -31 -5 -16 -14 -18 -13 -24 5 -3 12 -14 21 -23 21 -15 0 -15 -2 -2
-10 13 -8 12 -10 -2 -10 -10 0 -18 5 -18 10 0 6 -9 2 -21 -9 -12 -11 -19 -27
-16 -38 3 -15 6 -13 15 10 10 23 15 26 31 18 10 -6 21 -8 24 -5 2 3 2 -15 0
-40 -5 -40 -3 -44 13 -42 11 2 14 1 7 -1 -6 -2 -14 -14 -16 -26 -4 -22 -4 -22
-6 -1 -2 31 -23 46 -39 28 -10 -12 -10 -14 2 -14 8 0 18 -5 21 -10 9 -15 -13
-40 -34 -39 -12 0 -11 2 4 9 18 8 17 9 -7 9 -15 1 -30 6 -33 12 -9 14 4 27 13
13 9 -13 54 -26 46 -13 -3 5 -12 9 -20 9 -10 0 -13 7 -8 25 5 21 3 25 -15 25
-12 0 -21 5 -21 10 0 6 -6 10 -14 10 -9 0 -14 -9 -13 -20 1 -11 6 -20 11 -20
5 0 7 -3 3 -6 -3 -4 -17 2 -30 13 -25 19 -21 32 13 46 12 4 11 6 -2 6 -10 1
-18 6 -18 12 0 6 -6 9 -14 6 -10 -4 -12 0 -8 15 3 14 1 19 -6 14 -6 -3 -13 -2
-16 3 -4 5 5 8 19 6 22 -2 25 1 23 25 -1 18 -7 26 -15 23 -7 -3 -13 0 -13 7 0
6 -5 8 -12 4 -10 -6 -10 -5 -1 8 7 8 11 17 8 20 -3 3 2 11 10 18 14 11 14 10
6 -14 -7 -17 -7 -26 -1 -26 10 0 13 7 13 35 0 30 -3 36 -13 30 -5 -3 -10 -2
-10 4 0 5 5 11 11 13 8 3 9 12 4 28 l-9 25 -8 -25 c-6 -20 -7 -17 -3 13 2 20
0 37 -6 37 -5 0 -8 10 -6 23 1 13 -3 21 -10 20 -7 -2 -13 2 -13 7 0 6 5 10 10
10 6 0 4 13 -5 30 -9 17 -20 30 -25 30 -5 0 -12 9 -15 20 -6 17 -54 52 -70 50
-3 0 -13 6 -21 15 -9 8 -21 15 -29 15 -7 0 -20 3 -28 6 -8 3 -17 -2 -21 -11z"/>
<path d="M1412 957 c-20 -25 -90 -173 -97 -205 -4 -22 -11 -32 -20 -28 -22 8
-125 -29 -227 -82 -54 -28 -98 -48 -98 -44 0 4 -4 1 -8 -6 -10 -15 -156 -68
-214 -77 -67 -10 -105 -24 -218 -77 -115 -54 -136 -63 -163 -72 -11 -3 -21
-15 -24 -26 -3 -11 -11 -20 -18 -20 -17 0 -39 -55 -31 -76 6 -14 4 -15 -9 -4
-14 11 -17 10 -22 -8 -3 -12 -10 -22 -15 -22 -6 0 -7 -7 -4 -16 4 -12 2 -15
-9 -10 -14 5 -20 -5 -16 -27 1 -5 -3 -6 -8 -2 -13 7 -44 -52 -35 -67 5 -7 3
-8 -6 -3 -9 6 -12 4 -8 -7 4 -8 -2 -20 -13 -26 -10 -7 -19 -21 -19 -32 0 -20
8 -20 760 -20 635 0 760 2 760 14 0 7 -13 30 -30 51 -16 21 -30 42 -30 47 0 5
-9 29 -20 54 -12 24 -18 49 -15 54 3 5 1 11 -4 14 -5 3 -3 23 5 47 8 22 13 56
11 75 -3 19 0 34 5 34 5 0 2 7 -6 16 -9 8 -16 25 -16 37 0 12 -11 54 -25 92
-61 167 -65 185 -65 287 0 83 -3 104 -19 124 -14 18 -21 21 -29 11z"/>
</g>
</svg>
