<?xml version="1.0" encoding="utf-8"?>
<!-- Svg Vector Icons : http://www.onlinewebfonts.com/icon -->
<!DOCTYPE svg PUBLIC "-//W3C//DTD SVG 1.1//EN" "http://www.w3.org/Graphics/SVG/1.1/DTD/svg11.dtd">
<svg version="1.1" xmlns="http://www.w3.org/2000/svg" xmlns:xlink="http://www.w3.org/1999/xlink" x="0px" y="0px" viewBox="0 0 1000 1000" enable-background="new 0 0 1000 1000" xml:space="preserve">
<metadata> Svg Vector Icons : http://www.onlinewebfonts.com/icon </metadata>
<g><g transform="matrix(1 0 0 -1 0 1920)"><path d="M112.1,930c-28.3,0-52.4,9.9-72.3,29.8c-19.9,19.9-29.8,44-29.8,72.3v775.8c0,28.3,9.9,52.4,29.8,72.3c19.9,19.9,44,29.8,72.3,29.8h775.8c28.3,0,52.4-9.9,72.3-29.8c19.9-19.9,29.8-44,29.8-72.3v-775.8c0-28.3-9.9-52.4-29.8-72.3c-19.9-19.9-44-29.8-72.3-29.8H112.1z M500,1366.5c5.7,0,10.5,2,14.3,6.1l276,277.7c3.3,3.3,4.9,6.8,4.9,10.6c0,1.6-0.3,3.1-0.8,4.5c-2.2,5.2-6.7,7.8-13.5,7.8H219.1c-6.8,0-11.3-2.6-13.5-7.8c-0.5-1.4-0.8-2.9-0.8-4.5c0-3.8,1.6-7.4,4.9-10.6l276-277.7C489.5,1368.5,494.3,1366.5,500,1366.5z M215.4,1271.4c3,0,6.3,1.6,9.8,4.9l127.4,129.4c4.1,4.1,6.1,9.1,6.1,15.1c0,5.4-1.8,9.9-5.3,13.5l-128.6,129.4c-3.3,3.3-6.4,4.9-9.4,4.9c-6.3,0-9.4-4.8-9.4-14.3v-268.7C206,1276.1,209.1,1271.4,215.4,1271.4z M788.7,1272.6c3.5,2.4,5.3,6.5,5.3,12.3v269.5c0,9.5-3.1,14.3-9.4,14.3c-3,0-6.3-1.6-9.8-4.9l-125.4-129.4c-4.1-3.8-6.1-8.6-6.1-14.3s2-10.5,6.1-14.3l125.8-129.4c3.3-3.3,6.3-4.9,9-4.9C785.8,1271.4,787.3,1271.8,788.7,1272.6z M219.1,1166.8h561.9c6.8,0,11.3,2.6,13.5,7.8c0.5,1.4,0.8,2.9,0.8,4.5c0,3.8-1.6,7.3-4.9,10.6l-178.4,178.4c-3.8,4.1-8.6,6.1-14.3,6.1s-10.5-2-14.3-6.1l-80.4-80.4c-1.1-0.5-2-0.8-2.9-0.8l-2.9,0.8l-80.4,80.4c-3.8,4.1-8.6,6.1-14.3,6.1c-5.7,0-10.6-2-14.7-6.1l-178-178.4c-3.3-3.3-4.9-6.8-4.9-10.6c0-1.6,0.3-3.1,0.8-4.5C207.8,1169.4,212.3,1166.8,219.1,1166.8z"/></g></g>
</svg>